<svg style="position: absolute; width: 0; height: 0; overflow: hidden;" version="1.1" xmlns="http://www.w3.org/2000/svg"
     xmlns:xlink="http://www.w3.org/1999/xlink">
    <defs>
        <symbol id="torro-icon-logo" viewBox="0 0 150 150">
            <path class="st0" d="M54,108.4c-9.1-1.5-15.5-2.9-22.4-5.1C18,99,11.1,90.2,12.3,78.6c0.8-7.8,4.5-14.2,12.9-22.1
		c8.1-7.8,23.8-18.9,24.9-17.8c0.3,0.5-0.2,5.5-1.2,11.3c-2,11.3-2.3,16.8-1.1,18.6c1.5,2.3,5.6,3.6,13.5,4.2l8.2,0.7V91v17.5
		l-6.5,0.1C59.4,108.7,55.4,108.6,54,108.4z"/>
            <path class="st0" d="M79.5,107.9c-0.3-0.8-0.4-8.9-0.3-17.9l0.3-16.5l8.2-0.7c7.9-0.6,12-1.9,13.5-4.2c1.2-1.8,0.9-7.3-1.1-18.6
		c-1-5.8-1.5-10.8-1.2-11.3c1.1-1.1,16.8,10,24.9,17.8c4.2,3.9,8.5,9.1,9.9,11.9c3,6,4,14,2.3,19.1c-1.9,5.9-8.3,12.1-14.8,14.5
		C106.9,107.4,80.7,111,79.5,107.9z"/>
        </symbol>
        <symbol id="torro-icon-clippy" viewBox="0 0 1024 896">
            <path class="path1"
                  d="M128 768h256v64H128v-64z m320-384H128v64h320v-64z m128 192V448L384 640l192 192V704h320V576H576z m-288-64H128v64h160v-64zM128 704h160v-64H128v64z m576 64h64v128c-1 18-7 33-19 45s-27 18-45 19H64c-35 0-64-29-64-64V192c0-35 29-64 64-64h192C256 57 313 0 384 0s128 57 128 128h192c35 0 64 29 64 64v320h-64V320H64v576h640V768zM128 256h512c0-35-29-64-64-64h-64c-35 0-64-29-64-64s-29-64-64-64-64 29-64 64-29 64-64 64h-64c-35 0-64 29-64 64z"></path>
        </symbol>
        <symbol id="torro-icon-move" viewBox="0 0 32 24.66">
            <path class="path1"
                  d="M17.984 5.921v8.063h8v-4l6.016 6.016-6.016 6.015v-4.093h-8v8.063h4.031l-6.015 6.015-6.016-6.015h4v-8.063h-8v4.062l-5.984-5.984 5.984-5.984v3.968h8v-8.063h-3.906l5.922-5.921 5.922 5.921h-3.938z"></path>
        </symbol>
        <symbol id="torro-icon-textfield" viewBox="0 0 32 24.66">
            <path class="a"
                  d="M27.56,28.33H4.44A4.44,4.44,0,0,1,0,23.89V8.11A4.44,4.44,0,0,1,4.44,3.67H27.56A4.44,4.44,0,0,1,32,8.11V23.89A4.44,4.44,0,0,1,27.56,28.33ZM4.44,5.64A2.48,2.48,0,0,0,2,8.11V23.89a2.48,2.48,0,0,0,2.47,2.47H27.56A2.48,2.48,0,0,0,30,23.89V8.11a2.48,2.48,0,0,0-2.47-2.47Z"
                  transform="translate(0 -3.67)"/>
            <path class="a"
                  d="M6.49,19.63l-.55,2.83H3.61L6.29,10.07H9.17l2.41,12.39H9.25l-.54-2.83Zm2-1.87-.4-2.59c-.13-.76-.29-2-.4-2.82H7.63c-.13.83-.31,2.12-.44,2.83l-.46,2.58Z"
                  transform="translate(0 -3.67)"/>
            <path class="a"
                  d="M16.87,22.46l-.13-.88h0a2.33,2.33,0,0,1-2,1,2.49,2.49,0,0,1-2.37-2.74c0-2.35,2.08-3.33,4.11-3.35v-.2a1.14,1.14,0,0,0-1.26-1.21,3.38,3.38,0,0,0-1.84.51L12.92,14a5.78,5.78,0,0,1,2.79-.68c2.74,0,3.18,1.91,3.18,3.73V20.4A11.08,11.08,0,0,0,19,22.46Zm-.33-4.37c-.81,0-1.91.27-1.91,1.52,0,.9.5,1.23.86,1.23a1,1,0,0,0,1-.77,1.42,1.42,0,0,0,.06-.42Z"
                  transform="translate(0 -3.67)"/>
            <path class="a"
                  d="M27.8,22.24l-1.91-.14V9.24l1.91-.16A1,1,0,0,0,28.7,8a1,1,0,0,0-1.06-.9L25,7.34l-2.84-.22A1,1,0,0,0,21.1,8,1,1,0,0,0,22,9.08l1.91.15V22.09L22,22.24a1,1,0,0,0,.08,2h.08L24.8,24l2.85.21a1,1,0,0,0,.15-2Z"
                  transform="translate(0 -3.67)"/>
        </symbol>
        <symbol id="torro-icon-textarea" viewBox="0 0 32 24.66">
            <path class="a"
                  d="M5.42,12.92,5.1,14.54H3.77L5.3,7.47H7l1.38,7.07H7l-.3-1.62Zm1.14-1.07-.23-1.47C6.26,10,6.16,9.24,6.1,8.77h0C6,9.24,5.89,10,5.82,10.39l-.26,1.46Z"
                  transform="translate(0 -3.67)"/>
            <path class="a"
                  d="M11.35,14.54l-.07-.5h0a1.36,1.36,0,0,1-1.14.59,1.43,1.43,0,0,1-1.35-1.57c0-1.34,1.18-1.9,2.35-1.91V11a.66.66,0,0,0-.73-.7,1.9,1.9,0,0,0-1,.3l-.26-.93a3.51,3.51,0,0,1,1.6-.38c1.56,0,1.81,1.09,1.81,2.13v1.91a6.24,6.24,0,0,0,.09,1.17ZM11.16,12c-.46,0-1.09.16-1.09.87,0,.52.28.71.49.71a.6.6,0,0,0,.57-.44,1,1,0,0,0,0-.24Z"
                  transform="translate(0 -3.67)"/>
            <path class="a"
                  d="M17.79,15.48,17,15.42V8.32l.81-.06a1,1,0,0,0-.16-2l-1.57.12-1.7-.12a1,1,0,0,0-1.06.9,1,1,0,0,0,.91,1.06l.8.06v7.1l-.8.07a1,1,0,0,0-.91,1.06,1,1,0,0,0,1,.9h.08l1.58-.13,1.7.13a1,1,0,0,0,.15-2Z"
                  transform="translate(0 -3.67)"/>
            <path class="a"
                  d="M27.56,28.33H4.44A4.44,4.44,0,0,1,0,23.89V8.11A4.44,4.44,0,0,1,4.44,3.67H27.56A4.44,4.44,0,0,1,32,8.11V23.89A4.44,4.44,0,0,1,27.56,28.33ZM4.44,5.64A2.48,2.48,0,0,0,2,8.11V23.89a2.48,2.48,0,0,0,2.47,2.47H27.56A2.48,2.48,0,0,0,30,23.89V8.11a2.48,2.48,0,0,0-2.47-2.47Z"
                  transform="translate(0 -3.67)"/>
            <path class="a"
                  d="M27.62,25h0l-5.43-.13a1,1,0,0,1-.66-1.7l5.43-5.26a1,1,0,0,1,1.07-.2,1,1,0,0,1,.6.91V24a1,1,0,0,1-.3.7A1,1,0,0,1,27.62,25ZM24.56,23l2.07.06V20.94Z"
                  transform="translate(0 -3.67)"/>
        </symbol>
        <symbol id="torro-icon-content" viewBox="0 0 32 24.66">
            <path class="a"
                  d="M27.56,28.33H4.44A4.44,4.44,0,0,1,0,23.89V8.11A4.44,4.44,0,0,1,4.44,3.67H27.56A4.44,4.44,0,0,1,32,8.11V23.89A4.44,4.44,0,0,1,27.56,28.33ZM4.44,5.64A2.48,2.48,0,0,0,2,8.11V23.89a2.48,2.48,0,0,0,2.47,2.47H27.56A2.48,2.48,0,0,0,30,23.89V8.11a2.48,2.48,0,0,0-2.47-2.47Z"
                  transform="translate(0 -3.67)"/>
            <path class="a"
                  d="M12.27,11.78l-7.7,3.8a.33.33,0,0,0-.19.3v1.46a.33.33,0,0,0,.19.3l7.7,3.8a.32.32,0,0,0,.14,0,.26.26,0,0,0,.17,0,.32.32,0,0,0,.16-.28v-1.8a.34.34,0,0,0-.19-.3L7.33,16.61l5.22-2.43a.34.34,0,0,0,.19-.3v-1.8a.33.33,0,0,0-.16-.28A.31.31,0,0,0,12.27,11.78Z"
                  transform="translate(0 -3.67)"/>
            <path class="a"
                  d="M18.66,10.11H17a.33.33,0,0,0-.32.24L13.29,22.7a.32.32,0,0,0,.31.42h1.62a.33.33,0,0,0,.32-.24L19,10.52a.31.31,0,0,0,0-.28A.3.3,0,0,0,18.66,10.11Z"
                  transform="translate(0 -3.67)"/>
            <path class="a"
                  d="M27.43,15.53l-7.7-3.75a.34.34,0,0,0-.31,0,.33.33,0,0,0-.16.28v1.8a.34.34,0,0,0,.19.3l5.34,2.43L19.45,19a.34.34,0,0,0-.19.3v1.8a.32.32,0,0,0,.16.28.26.26,0,0,0,.17,0,.32.32,0,0,0,.14,0l7.7-3.75a.35.35,0,0,0,.19-.3V15.83A.35.35,0,0,0,27.43,15.53Z"
                  transform="translate(0 -3.67)"/>
        </symbol>
        <symbol id="torro-icon-dropdown" viewBox="0 0 32 24.66">
            <path class="a"
                  d="M6.5,18.11l-.32,1.62H4.85l1.53-7.07H8L9.4,19.73H8.07l-.3-1.62ZM7.64,17l-.23-1.48c-.07-.43-.17-1.13-.23-1.6h0c-.08.47-.18,1.2-.26,1.61L6.63,17Z"
                  transform="translate(0 -3.67)"/>
            <path class="a"
                  d="M12.43,19.73l-.08-.51h0a1.33,1.33,0,0,1-1.13.59,1.42,1.42,0,0,1-1.36-1.56c0-1.34,1.19-1.9,2.36-1.91v-.12a.66.66,0,0,0-.73-.69,1.93,1.93,0,0,0-1.05.3l-.25-.93a3.31,3.31,0,0,1,1.6-.39c1.56,0,1.81,1.09,1.81,2.13v1.91a6.28,6.28,0,0,0,.09,1.18Zm-.19-2.5c-.46,0-1.09.16-1.09.87,0,.52.28.7.49.7a.6.6,0,0,0,.57-.43,1,1,0,0,0,0-.25Z"
                  transform="translate(0 -3.67)"/>
            <path class="a"
                  d="M27.18,14.91a.94.94,0,0,1-.69-.29l-2-2-2,2a1,1,0,1,1-1.39-1.4l2.68-2.66a1,1,0,0,1,1.39,0l2.71,2.7a1,1,0,0,1,0,1.39A1,1,0,0,1,27.18,14.91Z"
                  transform="translate(0 -3.67)"/>
            <path class="a"
                  d="M24.5,21.52a1,1,0,0,1-.7-.29l-2.71-2.71a1,1,0,0,1,0-1.39,1,1,0,0,1,1.39,0l2,2,2-2a1,1,0,1,1,1.38,1.39l-2.68,2.67A1,1,0,0,1,24.5,21.52Z"
                  transform="translate(0 -3.67)"/>
            <path class="a"
                  d="M27.56,3.67H4.44A4.44,4.44,0,0,0,0,8.11V23.89a4.44,4.44,0,0,0,4.44,4.44H27.56A4.44,4.44,0,0,0,32,23.89V8.11A4.44,4.44,0,0,0,27.56,3.67ZM2,23.89V8.11A2.48,2.48,0,0,1,4.44,5.64H17a.76.76,0,0,0,0,.16V26.36H4.44A2.48,2.48,0,0,1,2,23.89Zm28.06,0a2.48,2.48,0,0,1-2.47,2.47H18.94V5.8a.76.76,0,0,0,0-.16h8.65A2.48,2.48,0,0,1,30,8.11Z"
                  transform="translate(0 -3.67)"/>
        </symbol>
        <symbol id="torro-icon-onechoice" viewBox="0 0 32 24.66">
            <path class="a"
                  d="M10.66,22.56A6.32,6.32,0,1,1,17,16.24,6.33,6.33,0,0,1,10.66,22.56Zm0-10.67A4.36,4.36,0,1,0,15,16.24,4.35,4.35,0,0,0,10.66,11.89Z"
                  transform="translate(0 -3.67)"/>
            <circle class="a" cx="10.66" cy="12.57" r="3.55"/>
            <path class="a"
                  d="M19.7,17.59l-.32,1.61H18.05l1.53-7.07h1.65L22.6,19.2H21.27L21,17.59Zm1.14-1.07L20.61,15c-.07-.43-.17-1.14-.23-1.61h0c-.08.47-.18,1.21-.26,1.62l-.26,1.47Z"
                  transform="translate(0 -3.67)"/>
            <path class="a"
                  d="M25.63,19.2l-.08-.5h0a1.33,1.33,0,0,1-1.13.59,1.42,1.42,0,0,1-1.35-1.57c0-1.34,1.18-1.89,2.35-1.91V15.7a.66.66,0,0,0-.73-.69,1.92,1.92,0,0,0-1.05.29l-.25-.92A3.31,3.31,0,0,1,25,14c1.56,0,1.81,1.09,1.81,2.13V18a6.11,6.11,0,0,0,.09,1.17Zm-.19-2.49c-.46,0-1.09.15-1.09.87,0,.51.28.7.49.7a.61.61,0,0,0,.57-.44.93.93,0,0,0,0-.24Z"
                  transform="translate(0 -3.67)"/>
            <path class="a"
                  d="M27.56,3.67H4.41A4.44,4.44,0,0,0,0,8.11V23.89a4.45,4.45,0,0,0,4.43,4.44H27.56A4.44,4.44,0,0,0,32,23.89V8.11A4.44,4.44,0,0,0,27.56,3.67Zm-13.31,2a4.35,4.35,0,0,1-7.15,0ZM7.37,26.36a4.3,4.3,0,0,1,6.58,0ZM30,23.89a2.48,2.48,0,0,1-2.47,2.47H16.29A6.28,6.28,0,0,0,5,26.36H4.44A2.48,2.48,0,0,1,2,23.89V8.11A2.47,2.47,0,0,1,4.44,5.64h.42a6.32,6.32,0,0,0,11.63,0H27.56A2.47,2.47,0,0,1,30,8.11Z"
                  transform="translate(0 -3.67)"/>
        </symbol>
        <symbol id="torro-icon-multiplechoice" viewBox="0 0 32 24.66">
            <path class="a"
                  d="M19.7,18.29l-.32,1.61H18.05l1.53-7.07h1.65L22.6,19.9H21.27L21,18.29Zm1.14-1.07-.23-1.48c-.07-.43-.17-1.14-.23-1.61h0c-.08.47-.18,1.21-.26,1.62l-.26,1.47Z"
                  transform="translate(0 -3.67)"/>
            <path class="a"
                  d="M25.63,19.9l-.08-.5h0A1.33,1.33,0,0,1,24.4,20a1.42,1.42,0,0,1-1.35-1.57c0-1.34,1.18-1.9,2.35-1.91V16.4a.66.66,0,0,0-.73-.7,1.93,1.93,0,0,0-1.05.3l-.25-.92a3.31,3.31,0,0,1,1.6-.39c1.56,0,1.81,1.09,1.81,2.13v1.91a6.11,6.11,0,0,0,.09,1.17Zm-.19-2.5c-.46,0-1.09.16-1.09.88,0,.51.28.7.49.7a.61.61,0,0,0,.57-.44,1,1,0,0,0,0-.24Z"
                  transform="translate(0 -3.67)"/>
            <path class="a"
                  d="M13.38,19.34a3.36,3.36,0,0,1-1.15.7,2.5,2.5,0,0,1-1.06.25H7.78a2.47,2.47,0,0,1-2.47-2.47v-3.4A2.47,2.47,0,0,1,7.78,12h3.39a2.58,2.58,0,0,1,.4,0l1.59-1.52a4.43,4.43,0,0,0-2-.49H7.78a4.44,4.44,0,0,0-4.44,4.44v3.4a4.45,4.45,0,0,0,4.44,4.44h3.39a4.45,4.45,0,0,0,4.44-4.44V17.2Z"
                  transform="translate(0 -3.67)"/>
            <path class="a"
                  d="M11.11,18.28a1.29,1.29,0,0,1-.94-.41L7.23,14.82A1.31,1.31,0,1,1,9.12,13l2,2.11,6.52-6.22a1.32,1.32,0,0,1,1.82,1.9L12,17.91A1.34,1.34,0,0,1,11.11,18.28Z"
                  transform="translate(0 -3.67)"/>
            <path class="a"
                  d="M27.56,3.67H4.44A4.49,4.49,0,0,0,0,8.11V23.89a4.44,4.44,0,0,0,3.31,4.28,4.67,4.67,0,0,0,1.13.16H27.56A4.44,4.44,0,0,0,32,23.89V8.11A4.44,4.44,0,0,0,27.56,3.67Zm-14.25,2A2.45,2.45,0,0,1,11.17,6.9H7.77A2.46,2.46,0,0,1,5.63,5.64ZM5.55,26.36A2.48,2.48,0,0,1,7.75,25h3.4a2.47,2.47,0,0,1,2.19,1.36ZM30,23.89a2.48,2.48,0,0,1-2.47,2.47H15.43A4.44,4.44,0,0,0,11.15,23H7.75a4.43,4.43,0,0,0-4.23,3.15A2.46,2.46,0,0,1,2,23.89V8.11A2.47,2.47,0,0,1,3.58,5.8,4.43,4.43,0,0,0,7.77,8.87h3.4a4.44,4.44,0,0,0,4.25-3.23H27.56A2.48,2.48,0,0,1,30,8.11Z"
                  transform="translate(0 -3.67)"/>
        </symbol>
        <symbol id="torro-icon-media" viewBox="0 0 32 24.63">
            <path class="a"
                  d="M31.69,11.68l-4.64-4.4a1,1,0,0,0-1.35,0l-4.58,4.34a1,1,0,0,0,1.35,1.43l2.88-2.73V23.87a2.48,2.48,0,0,1-2.47,2.47H4.43A2.47,2.47,0,0,1,2,23.87V8.1A2.47,2.47,0,0,1,4.43,5.63H22.88A2.43,2.43,0,0,1,24.13,6l1.45-1.38a4.4,4.4,0,0,0-2.7-.94H4.43A4.44,4.44,0,0,0,0,8.1V23.87A4.44,4.44,0,0,0,4.43,28.3H22.88a4.44,4.44,0,0,0,4.43-4.43V10.24l3,2.87a1,1,0,0,0,.68.27,1,1,0,0,0,.71-.31A1,1,0,0,0,31.69,11.68Z"
                  transform="translate(0 -3.67)"/>
            <path class="a"
                  d="M21.43,22.25l-2.6-4.63a.62.62,0,0,0-.81-.25l-4.1,2.05L9.29,11.26A.6.6,0,0,0,8.72,11a.62.62,0,0,0-.54.38l-4.62,11a.65.65,0,0,0,0,.59.63.63,0,0,0,.52.27H20.9a.6.6,0,0,0,.53-.3A.62.62,0,0,0,21.43,22.25Z"
                  transform="translate(0 -3.67)"/>
            <rect class="a" x="14.25" y="7.03" width="4.05" height="4.05" rx="1.63" ry="1.63"/>
        </symbol>
        <symbol id="torro-icon-checkbox" viewBox="0 0 32 24.66">
            <path class="a"
                  d="M27.56,28.33H4.44A4.44,4.44,0,0,1,0,23.89V8.11A4.44,4.44,0,0,1,4.44,3.67H27.56A4.44,4.44,0,0,1,32,8.11V23.89A4.44,4.44,0,0,1,27.56,28.33ZM4.44,5.64A2.47,2.47,0,0,0,2,8.11V23.89a2.48,2.48,0,0,0,2.47,2.47H27.56A2.48,2.48,0,0,0,30,23.89V8.11a2.47,2.47,0,0,0-2.47-2.47Z"
                  transform="translate(0 -3.67)"/>
            <path class="a"
                  d="M19.7,18.29l-.32,1.61H18.05l1.53-7.07h1.65L22.6,19.9H21.27L21,18.29Zm1.14-1.07-.23-1.48c-.07-.43-.17-1.14-.23-1.61h0c-.08.47-.18,1.21-.25,1.62l-.27,1.47Z"
                  transform="translate(0 -3.67)"/>
            <path class="a"
                  d="M25.63,19.9l-.07-.5h0A1.33,1.33,0,0,1,24.4,20a1.42,1.42,0,0,1-1.35-1.57c0-1.34,1.18-1.9,2.35-1.91V16.4a.66.66,0,0,0-.73-.7,1.93,1.93,0,0,0-1.05.3l-.25-.92a3.34,3.34,0,0,1,1.6-.39c1.56,0,1.81,1.09,1.81,2.13v1.91a6.11,6.11,0,0,0,.09,1.17Zm-.19-2.5c-.46,0-1.09.16-1.09.88,0,.51.28.7.49.7a.61.61,0,0,0,.57-.44,1,1,0,0,0,0-.24Z"
                  transform="translate(0 -3.67)"/>
            <path class="a"
                  d="M13.38,19.34a3.36,3.36,0,0,1-1.15.7,2.5,2.5,0,0,1-1.06.25H7.78a2.47,2.47,0,0,1-2.47-2.47v-3.4A2.47,2.47,0,0,1,7.78,12h3.39a2.58,2.58,0,0,1,.4,0l1.59-1.52a4.43,4.43,0,0,0-2-.49H7.78a4.44,4.44,0,0,0-4.44,4.44v3.4a4.44,4.44,0,0,0,4.44,4.43h3.39a4.44,4.44,0,0,0,4.44-4.43V17.2Z"
                  transform="translate(0 -3.67)"/>
            <path class="a"
                  d="M11.11,18.28a1.31,1.31,0,0,1-.94-.41L7.23,14.82A1.31,1.31,0,1,1,9.12,13l2,2.11,6.52-6.22a1.31,1.31,0,1,1,1.81,1.9L12,17.91A1.34,1.34,0,0,1,11.11,18.28Z"
                  transform="translate(0 -3.67)"/>
        </symbol>
    </defs>
</svg>
