<?xml version="1.0" encoding="iso-8859-1"?>
<!-- Generator: Adobe Illustrator 18.1.1, SVG Export Plug-In . SVG Version: 6.00 Build 0)  -->
<svg version="1.1" id="Capa_1" xmlns="http://www.w3.org/2000/svg" xmlns:xlink="http://www.w3.org/1999/xlink" x="0px" y="0px"
	 viewBox="0 0 20.967 20.967" style="enable-background:new 0 0 20.967 20.967;" xml:space="preserve">
<g>
	<path style="fill:#DDDDDD;" d="M20.966,4.305c0-0.467-0.38-0.847-0.848-0.847H0.848C0.381,3.458,0,3.838,0,4.305v1.052
		c0,0.042,0.004,0.081,0.009,0.115C0.004,5.505,0,5.538,0,5.572v11.09c0,0.467,0.38,0.846,0.848,0.846h19.271
		c0.468,0,0.848-0.379,0.848-0.846V5.572c0-0.044-0.005-0.084-0.011-0.121c0.007-0.045,0.011-0.091,0.011-0.136L20.966,4.305
		L20.966,4.305z M2.013,5.152h16.888l-8.419,6.1L2.013,5.152z M19.272,7.217v8.598H1.694V7.217l8.297,5.914
		c0.289,0.207,0.697,0.205,0.984,0.002L19.272,7.217z"/>
</g>
<g>
</g>
<g>
</g>
<g>
</g>
<g>
</g>
<g>
</g>
<g>
</g>
<g>
</g>
<g>
</g>
<g>
</g>
<g>
</g>
<g>
</g>
<g>
</g>
<g>
</g>
<g>
</g>
<g>
</g>
</svg>
