<svg style="position: absolute; width: 0; height: 0; overflow: hidden;" version="1.1" xmlns="http://www.w3.org/2000/svg" xmlns:xlink="http://www.w3.org/1999/xlink">
	<defs>
		<symbol id="torro-icon-logo" viewBox="0 0 1500 1500">
			<path class="path1" d="M0 750 l0 -750 750 0 750 0 0 750 0 750 -750 0 -750 0 0 -750z m680 161 l0 -158 -74 -6 c-83 -6 -132 -27 -148 -63 -11 -24 -5 -94 19 -238 l6 -39 -79 54 c-109 75 -201 164 -231 222 -51 102 -38 214 32 276 46 40 175 80 335 105 14 2 51 4 83 5 l57 1 0 -159z m395 130 c175 -42 237 -81 265 -167 17 -50 7 -131 -23 -191 -30 -58 -122 -147 -231 -222 l-79 -54 6 39 c24 144 30 214 19 238 -16 36 -65 57 -148 63 l-74 6 0 160 0 160 93 -7 c50 -3 128 -15 172 -25z"></path>
		</symbol>
		<symbol id="torro-icon-clippy" viewBox="0 0 1024 896">
			<path class="path1" d="M128 768h256v64H128v-64z m320-384H128v64h320v-64z m128 192V448L384 640l192 192V704h320V576H576z m-288-64H128v64h160v-64zM128 704h160v-64H128v64z m576 64h64v128c-1 18-7 33-19 45s-27 18-45 19H64c-35 0-64-29-64-64V192c0-35 29-64 64-64h192C256 57 313 0 384 0s128 57 128 128h192c35 0 64 29 64 64v320h-64V320H64v576h640V768zM128 256h512c0-35-29-64-64-64h-64c-35 0-64-29-64-64s-29-64-64-64-64 29-64 64-29 64-64 64h-64c-35 0-64 29-64 64z"></path>
		</symbol>
		<symbol id="torro-icon-move" viewBox="0 0 32 32">
			<path class="path1" d="M17.984 5.921v8.063h8v-4l6.016 6.016-6.016 6.015v-4.093h-8v8.063h4.031l-6.015 6.015-6.016-6.015h4v-8.063h-8v4.062l-5.984-5.984 5.984-5.984v3.968h8v-8.063h-3.906l5.922-5.921 5.922 5.921h-3.938z"></path>
		</symbol>
		<symbol id="torro-icon-textfield" viewBox="0 0 32 32">
			<path class="path1" d="M28 0h-24c-2.2 0-4 1.8-4 4v24c0 2.2 1.8 4 4 4h24c2.2 0 4-1.8 4-4v-24c0-2.2-1.8-4-4-4zM14 24.828l-7.414-7.414 2.828-2.828 4.586 4.586 9.586-9.586 2.828 2.828-12.414 12.414z"></path>
		</symbol>
		<symbol id="torro-icon-textarea" viewBox="0 0 32 32">
			<path class="path1" d="M28 0h-24c-2.2 0-4 1.8-4 4v24c0 2.2 1.8 4 4 4h24c2.2 0 4-1.8 4-4v-24c0-2.2-1.8-4-4-4zM14 24.828l-7.414-7.414 2.828-2.828 4.586 4.586 9.586-9.586 2.828 2.828-12.414 12.414z"></path>
		</symbol>
		<symbol id="torro-icon-content" viewBox="0 0 32 32">
			<path class="path1" d="M28 0h-24c-2.2 0-4 1.8-4 4v24c0 2.2 1.8 4 4 4h24c2.2 0 4-1.8 4-4v-24c0-2.2-1.8-4-4-4zM14 24.828l-7.414-7.414 2.828-2.828 4.586 4.586 9.586-9.586 2.828 2.828-12.414 12.414z"></path>
		</symbol>
		<symbol id="torro-icon-dropdown" viewBox="0 0 32 32">
			<path class="path1" d="M28 0h-24c-2.2 0-4 1.8-4 4v24c0 2.2 1.8 4 4 4h24c2.2 0 4-1.8 4-4v-24c0-2.2-1.8-4-4-4zM14 24.828l-7.414-7.414 2.828-2.828 4.586 4.586 9.586-9.586 2.828 2.828-12.414 12.414z"></path>
		</symbol>
		<symbol id="torro-icon-onechoice" viewBox="0 0 32 32">
			<path class="path1" d="M28 0h-24c-2.2 0-4 1.8-4 4v24c0 2.2 1.8 4 4 4h24c2.2 0 4-1.8 4-4v-24c0-2.2-1.8-4-4-4zM14 24.828l-7.414-7.414 2.828-2.828 4.586 4.586 9.586-9.586 2.828 2.828-12.414 12.414z"></path>
		</symbol>
		<symbol id="torro-icon-multiplechoice" viewBox="0 0 32 32">
			<path class="path1" d="M28 0h-24c-2.2 0-4 1.8-4 4v24c0 2.2 1.8 4 4 4h24c2.2 0 4-1.8 4-4v-24c0-2.2-1.8-4-4-4zM14 24.828l-7.414-7.414 2.828-2.828 4.586 4.586 9.586-9.586 2.828 2.828-12.414 12.414z"></path>
		</symbol>
		<symbol id="torro-icon-media" viewBox="0 0 32 32">
			<path class="path1" d="M15 22h-15v8h30v-8h-15zM28 26h-4v-2h4v2zM7 10l8-8 8 8h-5v10h-6v-10z"></path>
		</symbol>
		<symbol id="torro-icon-checkbox" viewBox="0 0 32 32">
			<path class="path1" d="M28 0h-24c-2.2 0-4 1.8-4 4v24c0 2.2 1.8 4 4 4h24c2.2 0 4-1.8 4-4v-24c0-2.2-1.8-4-4-4zM14 24.828l-7.414-7.414 2.828-2.828 4.586 4.586 9.586-9.586 2.828 2.828-12.414 12.414z"></path>
		</symbol>
	</defs>
</svg>
