<svg style="position: absolute; width: 0; height: 0; overflow: hidden;" version="1.1" xmlns="http://www.w3.org/2000/svg" xmlns:xlink="http://www.w3.org/1999/xlink">
	<defs>
		<symbol id="torro-icon-logo" viewBox="0 0 150 150" style="enable-background:new 0 0 150 150;">
			<path class="st0" d="M54,108.4c-9.1-1.5-15.5-2.9-22.4-5.1C18,99,11.1,90.2,12.3,78.6c0.8-7.8,4.5-14.2,12.9-22.1
		c8.1-7.8,23.8-18.9,24.9-17.8c0.3,0.5-0.2,5.5-1.2,11.3c-2,11.3-2.3,16.8-1.1,18.6c1.5,2.3,5.6,3.6,13.5,4.2l8.2,0.7V91v17.5
		l-6.5,0.1C59.4,108.7,55.4,108.6,54,108.4z"/>
			<path class="st0" d="M79.5,107.9c-0.3-0.8-0.4-8.9-0.3-17.9l0.3-16.5l8.2-0.7c7.9-0.6,12-1.9,13.5-4.2c1.2-1.8,0.9-7.3-1.1-18.6
		c-1-5.8-1.5-10.8-1.2-11.3c1.1-1.1,16.8,10,24.9,17.8c4.2,3.9,8.5,9.1,9.9,11.9c3,6,4,14,2.3,19.1c-1.9,5.9-8.3,12.1-14.8,14.5
		C106.9,107.4,80.7,111,79.5,107.9z"/>
		</symbol>
		<symbol id="torro-icon-clippy" viewBox="0 0 1024 896">
			<path class="path1" d="M128 768h256v64H128v-64z m320-384H128v64h320v-64z m128 192V448L384 640l192 192V704h320V576H576z m-288-64H128v64h160v-64zM128 704h160v-64H128v64z m576 64h64v128c-1 18-7 33-19 45s-27 18-45 19H64c-35 0-64-29-64-64V192c0-35 29-64 64-64h192C256 57 313 0 384 0s128 57 128 128h192c35 0 64 29 64 64v320h-64V320H64v576h640V768zM128 256h512c0-35-29-64-64-64h-64c-35 0-64-29-64-64s-29-64-64-64-64 29-64 64-29 64-64 64h-64c-35 0-64 29-64 64z"></path>
		</symbol>
		<symbol id="torro-icon-move" viewBox="0 0 32 32">
			<path class="path1" d="M17.984 5.921v8.063h8v-4l6.016 6.016-6.016 6.015v-4.093h-8v8.063h4.031l-6.015 6.015-6.016-6.015h4v-8.063h-8v4.062l-5.984-5.984 5.984-5.984v3.968h8v-8.063h-3.906l5.922-5.921 5.922 5.921h-3.938z"></path>
		</symbol>
		<symbol id="torro-icon-textfield" viewBox="0 0 330 330">
			<path d="M330,80H0v170l330,0.3V80z M311.8,231.8H18.2l0-133.5l293.5,0V231.8z"/>
			<g>
				<path d="M48.3,132.7H37.9v-13.3H78v13.3H67.6v64.6H78v13.3H37.9v-13.3h10.4V132.7z"/>
			</g>
		</symbol>
		<symbol id="torro-icon-textarea" viewBox="0 0 512 512">
			<path d="M444.255,297.913c-11.423,0-20.682,9.259-20.682,20.682v125.66c0,14.547-11.835,26.381-26.381,26.381H67.746
			c-14.547,0-26.381-11.835-26.381-26.381V114.81c0-14.547,11.835-26.381,26.381-26.381h125.66c11.422,0,20.682-9.26,20.682-20.682
			s-9.26-20.682-20.682-20.682H67.746c-37.355,0-67.746,30.391-67.746,67.746v329.445C0.001,481.609,30.392,512,67.746,512h329.445
			c37.355,0,67.746-30.391,67.746-67.746v-125.66C464.937,307.172,455.678,297.913,444.255,297.913z"/>
			<path d="M505.942,100.185L411.815,6.058c-8.077-8.077-21.172-8.077-29.249,0L147.249,241.376
			c-3.878,3.879-6.058,9.14-6.058,14.625v94.127c0,11.423,9.26,20.682,20.682,20.682h94.127c5.486,0,10.746-2.179,14.624-6.057
			l235.318-235.319c3.879-3.879,6.058-9.14,6.058-14.625S509.821,104.064,505.942,100.185z M247.434,329.445h-64.878v-64.878
			L397.191,49.932l64.878,64.878L247.434,329.445z"/>
		</symbol>
		<symbol id="torro-icon-content" viewBox="0 0 438.533 438.533">
			<path d="M396.283,130.188c-3.806-9.135-8.371-16.365-13.703-21.695l-89.078-89.081c-5.332-5.325-12.56-9.895-21.697-13.704
			C262.672,1.903,254.297,0,246.687,0H63.953C56.341,0,49.869,2.663,44.54,7.993c-5.33,5.327-7.994,11.799-7.994,19.414v383.719
			c0,7.617,2.664,14.089,7.994,19.417c5.33,5.325,11.801,7.991,19.414,7.991h310.633c7.611,0,14.079-2.666,19.407-7.991
			c5.328-5.332,7.994-11.8,7.994-19.417V155.313C401.991,147.699,400.088,139.323,396.283,130.188z M255.816,38.826
			c5.517,1.903,9.418,3.999,11.704,6.28l89.366,89.366c2.279,2.286,4.374,6.186,6.276,11.706H255.816V38.826z M365.449,401.991
			H73.089V36.545h146.178v118.771c0,7.614,2.662,14.084,7.992,19.414c5.332,5.327,11.8,7.994,19.417,7.994h118.773V401.991z"/>
			<path d="M319.77,292.355h-201c-2.663,0-4.853,0.855-6.567,2.566c-1.709,1.711-2.568,3.901-2.568,6.563v18.274
			c0,2.67,0.856,4.859,2.568,6.57c1.715,1.711,3.905,2.567,6.567,2.567h201c2.663,0,4.854-0.856,6.564-2.567s2.566-3.9,2.566-6.57
			v-18.274c0-2.662-0.855-4.853-2.566-6.563C324.619,293.214,322.429,292.355,319.77,292.355z"/>
			<path d="M112.202,221.831c-1.709,1.712-2.568,3.901-2.568,6.571v18.271c0,2.666,0.856,4.856,2.568,6.567
			c1.715,1.711,3.905,2.566,6.567,2.566h201c2.663,0,4.854-0.855,6.564-2.566s2.566-3.901,2.566-6.567v-18.271
			c0-2.663-0.855-4.854-2.566-6.571c-1.715-1.709-3.905-2.564-6.564-2.564h-201C116.107,219.267,113.917,220.122,112.202,221.831z"
			/>
		</symbol>
		<symbol id="torro-icon-dropdown" viewBox="0 0 412.293 412.293">
			<path d="M206.146,0C92.477,0,0,92.477,0,206.146c0,113.668,92.477,206.147,206.146,206.147
			c113.668,0,206.147-92.479,206.147-206.147C412.293,92.477,319.814,0,206.146,0z M206.146,366.5
			c-88.419,0-160.354-71.936-160.354-160.354c0-88.42,71.934-160.354,160.354-160.354c88.42,0,160.354,71.934,160.354,160.354
			C366.5,294.564,294.564,366.5,206.146,366.5z"/>
			<path d="M291.908,161.636H120.384c-3.722,0-7.111,2.146-8.702,5.512c-1.591,3.366-1.099,7.347,1.264,10.223l85.762,104.422
			c1.828,2.227,4.558,3.518,7.438,3.518c2.879,0,5.61-1.291,7.438-3.518l85.762-104.422c2.363-2.876,2.855-6.857,1.264-10.223
			C299.02,163.783,295.631,161.636,291.908,161.636z"/>
		</symbol>
		<symbol id="torro-icon-onechoice" viewBox="0 0 510 510">
			<path d="M255,127.5c-71.4,0-127.5,56.1-127.5,127.5c0,71.4,56.1,127.5,127.5,127.5c71.4,0,127.5-56.1,127.5-127.5
			C382.5,183.6,326.4,127.5,255,127.5z M255,0C114.75,0,0,114.75,0,255s114.75,255,255,255s255-114.75,255-255S395.25,0,255,0z
			 M255,459c-112.2,0-204-91.8-204-204S142.8,51,255,51s204,91.8,204,204S367.2,459,255,459z"/>
		</symbol>
		<symbol id="torro-icon-multiplechoice" viewBox="0 0 560.52 560.52">
			<path d="M107.934,289.229l16.03-16.026v73.045H0V222.285h118.297l-16.033,16.023H16.033v91.913h91.9V289.229z M132.851,217.316
		l-58.045,58.042l-24.984-24.984c-4.056-4.058-10.632-4.058-14.69,0c-4.056,4.058-4.056,10.631,0,14.69l32.327,32.33
		c2.027,2.028,4.686,3.045,7.347,3.045c2.655,0,5.319-1.017,7.346-3.045l65.389-65.391c4.058-4.053,4.058-10.629,0-14.682
		C143.482,213.255,136.909,213.255,132.851,217.316z M168.316,254.277v53.999H560.52v-53.999H168.316z"/>
		</symbol>
		<symbol id="torro-icon-media" viewBox="0 0 32 32">
			<path class="path1" d="M15 22h-15v8h30v-8h-15zM28 26h-4v-2h4v2zM7 10l8-8 8 8h-5v10h-6v-10z"></path>
		</symbol>
		<symbol id="torro-icon-checkbox" viewBox="0 0 474.8 474.801">
			<path d="M396.283,257.097c-1.14-0.575-2.282-0.862-3.433-0.862c-2.478,0-4.661,0.951-6.563,2.857l-18.274,18.271
			c-1.708,1.715-2.566,3.806-2.566,6.283v72.513c0,12.565-4.463,23.314-13.415,32.264c-8.945,8.945-19.701,13.418-32.264,13.418
			H82.226c-12.564,0-23.319-4.473-32.264-13.418c-8.947-8.949-13.418-19.698-13.418-32.264V118.622
			c0-12.562,4.471-23.316,13.418-32.264c8.945-8.946,19.7-13.418,32.264-13.418H319.77c4.188,0,8.47,0.571,12.847,1.714
			c1.143,0.378,1.999,0.571,2.563,0.571c2.478,0,4.668-0.949,6.57-2.852l13.99-13.99c2.282-2.281,3.142-5.043,2.566-8.276
			c-0.571-3.046-2.286-5.236-5.141-6.567c-10.272-4.752-21.412-7.139-33.403-7.139H82.226c-22.65,0-42.018,8.042-58.102,24.126
			C8.042,76.613,0,95.978,0,118.629v237.543c0,22.647,8.042,42.014,24.125,58.098c16.084,16.088,35.452,24.13,58.102,24.13h237.541
			c22.647,0,42.017-8.042,58.101-24.13c16.085-16.084,24.134-35.45,24.134-58.098v-90.797
			C402.001,261.381,400.088,258.623,396.283,257.097z"/>
			<path d="M467.95,93.216l-31.409-31.409c-4.568-4.567-9.996-6.851-16.279-6.851c-6.275,0-11.707,2.284-16.271,6.851
			L219.265,246.532l-75.084-75.089c-4.569-4.57-9.995-6.851-16.274-6.851c-6.28,0-11.704,2.281-16.274,6.851l-31.405,31.405
			c-4.568,4.568-6.854,9.994-6.854,16.277c0,6.28,2.286,11.704,6.854,16.274l122.767,122.767c4.569,4.571,9.995,6.851,16.274,6.851
			c6.279,0,11.704-2.279,16.274-6.851l232.404-232.403c4.565-4.567,6.854-9.994,6.854-16.274S472.518,97.783,467.95,93.216z"/>
		</symbol>
	</defs>
</svg>
